<svg width="175" height="30" viewBox="0 0 175 30" fill="none" xmlns="http://www.w3.org/2000/svg">
<path d="M12.0078 17.9189C12.0078 17.5381 11.9492 17.1963 11.832 16.8936C11.7246 16.5811 11.5195 16.2979 11.2168 16.0439C10.9141 15.7803 10.4893 15.5215 9.94238 15.2676C9.39551 15.0137 8.6875 14.75 7.81836 14.4766C6.85156 14.1641 5.93359 13.8125 5.06445 13.4219C4.20508 13.0312 3.44336 12.5771 2.7793 12.0596C2.125 11.5322 1.60742 10.9219 1.22656 10.2285C0.855469 9.53516 0.669922 8.72949 0.669922 7.81152C0.669922 6.92285 0.865234 6.11719 1.25586 5.39453C1.64648 4.66211 2.19336 4.03711 2.89648 3.51953C3.59961 2.99219 4.42969 2.58691 5.38672 2.30371C6.35352 2.02051 7.41309 1.87891 8.56543 1.87891C10.1377 1.87891 11.5098 2.16211 12.6816 2.72852C13.8535 3.29492 14.7617 4.07129 15.4062 5.05762C16.0605 6.04395 16.3877 7.17187 16.3877 8.44141H12.0225C12.0225 7.81641 11.8906 7.26953 11.627 6.80078C11.373 6.32227 10.9824 5.94629 10.4551 5.67285C9.9375 5.39941 9.2832 5.2627 8.49219 5.2627C7.73047 5.2627 7.0957 5.37988 6.58789 5.61426C6.08008 5.83887 5.69922 6.14648 5.44531 6.53711C5.19141 6.91797 5.06445 7.34766 5.06445 7.82617C5.06445 8.1875 5.15234 8.51465 5.32812 8.80762C5.51367 9.10059 5.78711 9.37402 6.14844 9.62793C6.50977 9.88184 6.9541 10.1211 7.48145 10.3457C8.00879 10.5703 8.61914 10.79 9.3125 11.0049C10.4746 11.3564 11.4951 11.752 12.374 12.1914C13.2627 12.6309 14.0049 13.124 14.6006 13.6709C15.1963 14.2178 15.6455 14.8379 15.9482 15.5312C16.251 16.2246 16.4023 17.0107 16.4023 17.8896C16.4023 18.8174 16.2217 19.6475 15.8604 20.3799C15.499 21.1123 14.9766 21.7324 14.293 22.2402C13.6094 22.748 12.7939 23.1338 11.8467 23.3975C10.8994 23.6611 9.83984 23.793 8.66797 23.793C7.61328 23.793 6.57324 23.6562 5.54785 23.3828C4.52246 23.0996 3.58984 22.6748 2.75 22.1084C1.91992 21.542 1.25586 20.8193 0.757812 19.9404C0.259766 19.0615 0.0107422 18.0215 0.0107422 16.8203H4.41992C4.41992 17.4844 4.52246 18.0459 4.72754 18.5049C4.93262 18.9639 5.2207 19.335 5.5918 19.6182C5.97266 19.9014 6.42188 20.1064 6.93945 20.2334C7.4668 20.3604 8.04297 20.4238 8.66797 20.4238C9.42969 20.4238 10.0547 20.3164 10.543 20.1016C11.041 19.8867 11.4072 19.5889 11.6416 19.208C11.8857 18.8271 12.0078 18.3975 12.0078 17.9189ZM23.3457 0.985352V23.5H19.127V0.985352H23.3457ZM33.3359 7.65039L26.4512 15.502L22.7598 19.2373L21.2217 16.1904L24.1514 12.4697L28.2676 7.65039H33.3359ZM28.9561 23.5L24.2686 16.1758L27.1836 13.627L33.8193 23.5H28.9561ZM39.6055 7.65039V23.5H35.3721V7.65039H39.6055ZM35.1084 3.51953C35.1084 2.9043 35.3232 2.39648 35.7529 1.99609C36.1826 1.5957 36.7588 1.39551 37.4814 1.39551C38.1943 1.39551 38.7656 1.5957 39.1953 1.99609C39.6348 2.39648 39.8545 2.9043 39.8545 3.51953C39.8545 4.13477 39.6348 4.64258 39.1953 5.04297C38.7656 5.44336 38.1943 5.64355 37.4814 5.64355C36.7588 5.64355 36.1826 5.44336 35.7529 5.04297C35.3232 4.64258 35.1084 4.13477 35.1084 3.51953ZM47.5449 1V23.5H43.3115V1H47.5449ZM55.4844 1V23.5H51.251V1H55.4844ZM64.376 20.1162L68.624 2.17188H70.9971L71.5391 5.16016L67.0127 23.5H64.4639L64.376 20.1162ZM62.1934 2.17188L65.709 20.1162L65.416 23.5H62.5742L57.8428 2.17188H62.1934ZM75.2744 20.043L78.7461 2.17188H83.0967L78.3799 23.5H75.5381L75.2744 20.043ZM72.3301 2.17188L76.6074 20.1895L76.4902 23.5H73.9414L69.3857 5.14551L69.9717 2.17188H72.3301ZM89.6738 7.65039V23.5H85.4404V7.65039H89.6738ZM85.1768 3.51953C85.1768 2.9043 85.3916 2.39648 85.8213 1.99609C86.251 1.5957 86.8271 1.39551 87.5498 1.39551C88.2627 1.39551 88.834 1.5957 89.2637 1.99609C89.7031 2.39648 89.9229 2.9043 89.9229 3.51953C89.9229 4.13477 89.7031 4.64258 89.2637 5.04297C88.834 5.44336 88.2627 5.64355 87.5498 5.64355C86.8271 5.64355 86.251 5.44336 85.8213 5.04297C85.3916 4.64258 85.1768 4.13477 85.1768 3.51953ZM97.6133 1V23.5H93.3799V1H97.6133ZM105.553 1V23.5H101.319V1H105.553ZM125.123 14.1396H119.645L119.615 11.1221H124.215C125.025 11.1221 125.689 11.0195 126.207 10.8145C126.725 10.5996 127.11 10.292 127.364 9.8916C127.628 9.48145 127.76 8.9834 127.76 8.39746C127.76 7.7334 127.633 7.19629 127.379 6.78613C127.135 6.37598 126.749 6.07813 126.222 5.89258C125.704 5.70703 125.035 5.61426 124.215 5.61426H121.168V23.5H116.773V2.17188H124.215C125.455 2.17188 126.563 2.28906 127.54 2.52344C128.526 2.75781 129.361 3.11426 130.045 3.59277C130.729 4.07129 131.251 4.67676 131.612 5.40918C131.974 6.13184 132.154 6.99121 132.154 7.9873C132.154 8.86621 131.954 9.67676 131.554 10.4189C131.163 11.1611 130.543 11.7666 129.693 12.2354C128.854 12.7041 127.755 12.9629 126.397 13.0117L125.123 14.1396ZM124.933 23.5H118.443L120.157 20.0723H124.933C125.704 20.0723 126.334 19.9502 126.822 19.7061C127.311 19.4521 127.672 19.1104 127.906 18.6807C128.141 18.251 128.258 17.7578 128.258 17.2012C128.258 16.5762 128.15 16.0342 127.936 15.5752C127.73 15.1162 127.398 14.7646 126.939 14.5205C126.48 14.2666 125.875 14.1396 125.123 14.1396H120.89L120.919 11.1221H126.192L127.203 12.3086C128.502 12.2891 129.547 12.5186 130.338 12.9971C131.139 13.4658 131.72 14.0762 132.081 14.8281C132.452 15.5801 132.638 16.3857 132.638 17.2451C132.638 18.6123 132.34 19.7646 131.744 20.7021C131.148 21.6299 130.274 22.3281 129.122 22.7969C127.979 23.2656 126.583 23.5 124.933 23.5ZM140.123 1V23.5H135.89V1H140.123ZM142.936 15.7363V15.4287C142.936 14.2666 143.102 13.1973 143.434 12.2207C143.766 11.2344 144.249 10.3799 144.884 9.65723C145.519 8.93457 146.3 8.37305 147.228 7.97266C148.155 7.5625 149.22 7.35742 150.421 7.35742C151.622 7.35742 152.691 7.5625 153.629 7.97266C154.566 8.37305 155.353 8.93457 155.987 9.65723C156.632 10.3799 157.12 11.2344 157.452 12.2207C157.784 13.1973 157.95 14.2666 157.95 15.4287V15.7363C157.95 16.8887 157.784 17.958 157.452 18.9443C157.12 19.9209 156.632 20.7754 155.987 21.5078C155.353 22.2305 154.571 22.792 153.644 23.1924C152.716 23.5928 151.651 23.793 150.45 23.793C149.249 23.793 148.18 23.5928 147.242 23.1924C146.314 22.792 145.528 22.2305 144.884 21.5078C144.249 20.7754 143.766 19.9209 143.434 18.9443C143.102 17.958 142.936 16.8887 142.936 15.7363ZM147.154 15.4287V15.7363C147.154 16.4004 147.213 17.0205 147.33 17.5967C147.447 18.1729 147.633 18.6807 147.887 19.1201C148.15 19.5498 148.492 19.8867 148.912 20.1309C149.332 20.375 149.845 20.4971 150.45 20.4971C151.036 20.4971 151.539 20.375 151.959 20.1309C152.379 19.8867 152.716 19.5498 152.97 19.1201C153.224 18.6807 153.409 18.1729 153.526 17.5967C153.653 17.0205 153.717 16.4004 153.717 15.7363V15.4287C153.717 14.7842 153.653 14.1787 153.526 13.6123C153.409 13.0361 153.219 12.5283 152.955 12.0889C152.701 11.6396 152.364 11.2881 151.944 11.0342C151.524 10.7803 151.017 10.6533 150.421 10.6533C149.825 10.6533 149.317 10.7803 148.897 11.0342C148.487 11.2881 148.15 11.6396 147.887 12.0889C147.633 12.5283 147.447 13.0361 147.33 13.6123C147.213 14.1787 147.154 14.7842 147.154 15.4287ZM170.577 7.65039H174.4V22.9727C174.4 24.418 174.078 25.6436 173.434 26.6494C172.799 27.665 171.91 28.4316 170.768 28.9492C169.625 29.4766 168.297 29.7402 166.783 29.7402C166.119 29.7402 165.416 29.6523 164.674 29.4766C163.941 29.3008 163.238 29.0273 162.564 28.6562C161.9 28.2852 161.344 27.8164 160.895 27.25L162.755 24.7598C163.243 25.3262 163.81 25.7656 164.454 26.0781C165.099 26.4004 165.812 26.5615 166.593 26.5615C167.354 26.5615 167.999 26.4199 168.526 26.1367C169.054 25.8633 169.459 25.458 169.742 24.9209C170.025 24.3936 170.167 23.7539 170.167 23.002V11.3125L170.577 7.65039ZM159.913 15.7656V15.458C159.913 14.2471 160.06 13.1484 160.353 12.1621C160.655 11.166 161.08 10.3115 161.627 9.59863C162.184 8.88574 162.857 8.33398 163.648 7.94336C164.439 7.55273 165.333 7.35742 166.329 7.35742C167.384 7.35742 168.268 7.55273 168.98 7.94336C169.693 8.33398 170.279 8.89062 170.738 9.61328C171.197 10.3262 171.554 11.1709 171.808 12.1475C172.071 13.1143 172.276 14.1738 172.423 15.3262V16C172.276 17.1035 172.057 18.1289 171.764 19.0762C171.471 20.0234 171.085 20.8535 170.606 21.5664C170.128 22.2695 169.532 22.8164 168.819 23.207C168.116 23.5977 167.276 23.793 166.3 23.793C165.323 23.793 164.439 23.5928 163.648 23.1924C162.867 22.792 162.198 22.2305 161.642 21.5078C161.085 20.7852 160.655 19.9355 160.353 18.959C160.06 17.9824 159.913 16.918 159.913 15.7656ZM164.132 15.458V15.7656C164.132 16.4199 164.195 17.0303 164.322 17.5967C164.449 18.1631 164.645 18.666 164.908 19.1055C165.182 19.5352 165.519 19.8721 165.919 20.1162C166.329 20.3506 166.812 20.4678 167.369 20.4678C168.141 20.4678 168.771 20.3066 169.259 19.9844C169.747 19.6523 170.113 19.1982 170.357 18.6221C170.602 18.0459 170.743 17.3818 170.782 16.6299V14.7109C170.763 14.0957 170.68 13.5439 170.533 13.0557C170.387 12.5576 170.182 12.1328 169.918 11.7812C169.654 11.4297 169.312 11.1562 168.893 10.9609C168.473 10.7656 167.975 10.668 167.398 10.668C166.842 10.668 166.358 10.7949 165.948 11.0488C165.548 11.293 165.211 11.6299 164.938 12.0596C164.674 12.4893 164.474 12.9971 164.337 13.583C164.2 14.1592 164.132 14.7842 164.132 15.458Z" fill="url(#paint0_linear_4599_595)"/>
<defs>
<linearGradient id="paint0_linear_4599_595" x1="88" y1="-4.5" x2="-1" y2="-4.5" gradientUnits="userSpaceOnUse">
<stop stop-color="#16B8F3"/>
<stop offset="1" stop-color="#0EA5E9"/>
</linearGradient>
</defs>
</svg>
